<svg xmlns:dc="http://purl.org/dc/elements/1.1/" xmlns:cc="http://creativecommons.org/ns#" xmlns:rdf="http://www.w3.org/1999/02/22-rdf-syntax-ns#" xmlns:svg="http://www.w3.org/2000/svg" xmlns="http://www.w3.org/2000/svg" xmlns:sodipodi="http://sodipodi.sourceforge.net/DTD/sodipodi-0.dtd" xmlns:inkscape="http://www.inkscape.org/namespaces/inkscape" xml:space="preserve" height="118px" style="shape-rendering:geometricPrecision; text-rendering:geometricPrecision; image-rendering:optimizeQuality; fill-rule:evenodd; clip-rule:evenodd" version="1.1" id="svg84" sodipodi:docname="Geometry_pipeline_en.svg" inkscape:version="0.92.0 r15299" viewBox="0 0 721 118.044" width="721px"><metadata id="metadata88"><rdf:RDF><cc:Work rdf:about=""><dc:format>image/svg+xml</dc:format><dc:type rdf:resource="http://purl.org/dc/dcmitype/StillImage"/><dc:title/></cc:Work></rdf:RDF></metadata><sodipodi:namedview pagecolor="#ffffff" bordercolor="#666666" borderopacity="1" objecttolerance="10" gridtolerance="10" guidetolerance="10" inkscape:pageopacity="0" inkscape:pageshadow="2" inkscape:window-width="1481" inkscape:window-height="948" id="namedview86" showgrid="false" inkscape:zoom="3.066483" inkscape:cx="556.84958" inkscape:cy="14.206378" inkscape:window-x="1608" inkscape:window-y="117" inkscape:window-maximized="0" inkscape:current-layer="Layer_x0020_1"/><defs id="defs4"><style type="text/css" id="style2"><![CDATA[
    .fil3 {fill:#1F1A17}
    .fil0 {fill:white}
    .fil2 {fill:#CDC5DD}
    .fil1 {fill:#1F1A17;fill-rule:nonzero}
    .fnt0 {font-weight:normal;font-size:11.0981;font-family:'DejaVu Sans'}
   ]]></style></defs><g id="Layer_x0020_1"><metadata id="CorelCorpID_0Corel-Layer"/><rect class="fil0" x="-0.000142997" y="-0.000142997" height="118.044" id="rect7" style="" width="721"/><g id="g10"><path style="fill:#1f1a17;fill-rule:nonzero" inkscape:connector-curvature="0" d="m 176.657,44.6005 v 1.00899 l -0.026,-7.15e-4 -0.0256,-0.0019 -0.0252,-0.0033 -0.0249,-0.0044 -0.0245,-0.0056 -0.0239,-0.0069 -0.0235,-0.0079 -0.0229,-0.009 -0.0223,-0.01015 -0.0217,-0.01115 -0.0212,-0.01215 -0.0205,-0.01316 -0.0199,-0.01401 -0.019,-0.01501 -0.0183,-0.01587 -0.0176,-0.01673 -0.0166,-0.01745 -0.0159,-0.0183 -0.015,-0.01902 -0.014,-0.01988 -0.0131,-0.02045 -0.0122,-0.02116 -0.0112,-0.02173 -0.0102,-0.02231 -0.009,-0.02288 -0.008,-0.02345 -0.007,-0.02388 -0.006,-0.02445 -0.004,-0.02488 -0.003,-0.02517 -0.002,-0.0256 -7.1e-4,-0.02603 7.1e-4,-0.02602 0.002,-0.0256 0.003,-0.02517 0.004,-0.02488 0.006,-0.02445 0.007,-0.02388 0.008,-0.02345 0.009,-0.02288 0.0102,-0.02231 0.0112,-0.02174 0.0122,-0.02116 0.0131,-0.02045 0.014,-0.01988 0.015,-0.01902 0.0159,-0.0183 0.0166,-0.01759 0.0176,-0.01659 0.0183,-0.01587 0.019,-0.01501 0.0199,-0.01401 0.0205,-0.01316 0.0212,-0.01215 0.0217,-0.01115 0.0223,-0.01015 0.0229,-0.009 0.0235,-0.0079 0.0239,-0.0069 0.0245,-0.0056 0.0249,-0.0044 0.0252,-0.0033 0.0256,-0.0019 0.026,-7.15e-4 z m 15.9932,1.00899 H 176.657 V 44.6005 h 15.9932 z m 3.54962,-0.504493 -6.13929,2.1421 0.0796,-0.133845 0.0745,-0.133845 0.0694,-0.133845 0.0642,-0.133988 0.0592,-0.133845 0.0539,-0.133845 0.0488,-0.133988 0.0438,-0.133845 0.0385,-0.133845 0.0335,-0.133845 0.0283,-0.133988 0.023,-0.133845 0.018,-0.133845 0.0129,-0.133845 0.008,-0.133988 0.003,-0.133845 -0.003,-0.133845 -0.008,-0.133988 -0.0129,-0.133845 -0.018,-0.133845 -0.023,-0.133845 -0.0283,-0.133988 -0.0335,-0.133845 -0.0385,-0.133845 -0.0438,-0.133845 -0.0488,-0.133988 -0.0539,-0.133845 -0.0592,-0.133845 -0.0642,-0.133988 -0.0694,-0.133845 -0.0745,-0.133845 -0.0796,-0.133845 v 0 l 6.13929,2.1421 z M 192.6502,45.60949 V 44.6005 l 0.026,7.15e-4 0.0256,0.0019 0.0252,0.0033 0.0249,0.0044 0.0245,0.0056 0.0239,0.0069 0.0235,0.0079 0.0229,0.009 0.0223,0.01015 0.0217,0.01115 0.0212,0.01215 0.0204,0.01316 0.0199,0.01401 0.019,0.01501 0.0183,0.01587 0.0174,0.01659 0.0167,0.01759 0.0159,0.0183 0.015,0.01902 0.014,0.01988 0.0131,0.02045 0.0122,0.02116 0.0111,0.02173 0.0102,0.02231 0.009,0.02288 0.008,0.02345 0.007,0.02388 0.006,0.02445 0.004,0.02488 0.003,0.02517 0.002,0.0256 7.1e-4,0.02603 -7.1e-4,0.02603 -0.002,0.0256 -0.003,0.02517 -0.004,0.02488 -0.006,0.02445 -0.007,0.02388 -0.008,0.02345 -0.009,0.02288 -0.0102,0.02231 -0.0111,0.02174 -0.0122,0.02116 -0.0131,0.02045 -0.014,0.01988 -0.015,0.01902 -0.0159,0.0183 -0.0167,0.01744 -0.0174,0.01673 -0.0183,0.01587 -0.019,0.01501 -0.0199,0.01401 -0.0204,0.01316 -0.0212,0.01215 -0.0217,0.01115 -0.0223,0.01015 -0.0229,0.009 -0.0235,0.0079 -0.0239,0.0069 -0.0245,0.0056 -0.0249,0.0044 -0.0252,0.0033 -0.0256,0.0019 -0.026,7.15e-4 z" class="fil1" id="_38378720"/></g><g id="g14"><path style="fill:#1f1a17;fill-rule:nonzero" inkscape:connector-curvature="0" id="path12" d="m 300.019,44.6005 v 1.00899 l -0.026,-7.15e-4 -0.0256,-0.0019 -0.0252,-0.0033 -0.0249,-0.0044 -0.0245,-0.0056 -0.0239,-0.0069 -0.0235,-0.0079 -0.0229,-0.009 -0.0223,-0.01015 -0.0217,-0.01115 -0.0212,-0.01215 -0.0204,-0.01316 -0.0199,-0.01401 -0.019,-0.01501 -0.0183,-0.01587 -0.0176,-0.01673 -0.0166,-0.01745 -0.0159,-0.0183 -0.015,-0.01902 -0.014,-0.01988 -0.0131,-0.02045 -0.0122,-0.02116 -0.0111,-0.02173 -0.0102,-0.02231 -0.009,-0.02288 -0.008,-0.02345 -0.007,-0.02388 -0.006,-0.02445 -0.004,-0.02488 -0.003,-0.02517 -0.002,-0.0256 -7.1e-4,-0.02603 7.1e-4,-0.02602 0.002,-0.0256 0.003,-0.02517 0.004,-0.02488 0.006,-0.02445 0.007,-0.02388 0.008,-0.02345 0.009,-0.02288 0.0102,-0.02231 0.0111,-0.02174 0.0122,-0.02116 0.0131,-0.02045 0.014,-0.01988 0.015,-0.01902 0.0159,-0.0183 0.0166,-0.01759 0.0176,-0.01659 0.0183,-0.01587 0.019,-0.01501 0.0199,-0.01401 0.0204,-0.01316 0.0212,-0.01215 0.0217,-0.01115 0.0223,-0.01015 0.0229,-0.009 0.0235,-0.0079 0.0239,-0.0069 0.0245,-0.0056 0.0249,-0.0044 0.0252,-0.0033 0.0256,-0.0019 0.026,-7.15e-4 z m 15.9932,1.00899 H 300.019 V 44.6005 h 15.9932 z m 3.54962,-0.504493 -6.13929,2.1421 0.0797,-0.133845 0.0745,-0.133845 0.0693,-0.133845 0.0642,-0.133988 0.0592,-0.133845 0.0539,-0.133845 0.0488,-0.133988 0.0438,-0.133845 0.0385,-0.133845 0.0335,-0.133845 0.0283,-0.133988 0.023,-0.133845 0.018,-0.133845 0.0129,-0.133845 0.008,-0.133988 0.003,-0.133845 -0.003,-0.133845 -0.008,-0.133988 -0.0129,-0.133845 -0.018,-0.133845 -0.023,-0.133845 -0.0283,-0.133988 -0.0335,-0.133845 -0.0385,-0.133845 -0.0438,-0.133845 -0.0488,-0.133988 -0.0539,-0.133845 -0.0592,-0.133845 -0.0642,-0.133988 -0.0693,-0.133845 -0.0745,-0.133845 -0.0797,-0.133845 v 0 l 6.13929,2.1421 z M 316.0122,45.60949 V 44.6005 l 0.026,7.15e-4 0.0256,0.0019 0.0252,0.0033 0.0249,0.0044 0.0245,0.0056 0.0239,0.0069 0.0235,0.0079 0.0229,0.009 0.0223,0.01015 0.0217,0.01115 0.0212,0.01215 0.0205,0.01316 0.0199,0.01401 0.019,0.01501 0.0183,0.01587 0.0174,0.01659 0.0167,0.01759 0.0159,0.0183 0.015,0.01902 0.014,0.01988 0.0131,0.02045 0.0122,0.02116 0.0111,0.02173 0.0102,0.02231 0.009,0.02288 0.008,0.02345 0.007,0.02388 0.006,0.02445 0.004,0.02488 0.003,0.02517 0.002,0.0256 7.1e-4,0.02603 -7.1e-4,0.02603 -0.002,0.0256 -0.003,0.02517 -0.004,0.02488 -0.006,0.02445 -0.007,0.02388 -0.008,0.02345 -0.009,0.02288 -0.0102,0.02231 -0.0111,0.02174 -0.0122,0.02116 -0.0131,0.02045 -0.014,0.01988 -0.015,0.01902 -0.0159,0.0183 -0.0167,0.01744 -0.0174,0.01673 -0.0183,0.01587 -0.019,0.01501 -0.0199,0.01401 -0.0205,0.01316 -0.0212,0.01215 -0.0217,0.01115 -0.0223,0.01015 -0.0229,0.009 -0.0235,0.0079 -0.0239,0.0069 -0.0245,0.0056 -0.0249,0.0044 -0.0252,0.0033 -0.0256,0.0019 -0.026,7.15e-4 z" class="fil1"/></g><g id="g18"><path style="fill:#1f1a17;fill-rule:nonzero" inkscape:connector-curvature="0" id="path16" d="m 414.302,44.6005 v 1.00899 l -0.026,-7.15e-4 -0.0256,-0.0019 -0.0252,-0.0033 -0.0249,-0.0044 -0.0245,-0.0056 -0.0239,-0.0069 -0.0235,-0.0079 -0.0229,-0.009 -0.0223,-0.01015 -0.0217,-0.01115 -0.0212,-0.01215 -0.0204,-0.01316 -0.0199,-0.01401 -0.019,-0.01501 -0.0183,-0.01587 -0.0174,-0.01673 -0.0167,-0.01745 -0.0159,-0.0183 -0.015,-0.01902 -0.014,-0.01988 -0.0131,-0.02045 -0.0122,-0.02116 -0.0112,-0.02173 -0.0101,-0.02231 -0.009,-0.02288 -0.008,-0.02345 -0.007,-0.02388 -0.006,-0.02445 -0.004,-0.02488 -0.003,-0.02517 -0.002,-0.0256 -7.1e-4,-0.02603 7.1e-4,-0.02602 0.002,-0.0256 0.003,-0.02517 0.004,-0.02488 0.006,-0.02445 0.007,-0.02388 0.008,-0.02345 0.009,-0.02288 0.0101,-0.02231 0.0112,-0.02174 0.0122,-0.02116 0.0131,-0.02045 0.014,-0.01988 0.015,-0.01902 0.0159,-0.0183 0.0167,-0.01759 0.0174,-0.01659 0.0183,-0.01587 0.019,-0.01501 0.0199,-0.01401 0.0204,-0.01316 0.0212,-0.01215 0.0217,-0.01115 0.0223,-0.01015 0.0229,-0.009 0.0235,-0.0079 0.0239,-0.0069 0.0245,-0.0056 0.0249,-0.0044 0.0252,-0.0033 0.0256,-0.0019 0.026,-7.15e-4 z m 15.9932,1.00899 H 414.302 V 44.6005 h 15.9932 z m 3.54962,-0.504493 -6.13929,2.1421 0.0797,-0.133845 0.0745,-0.133845 0.0693,-0.133845 0.0642,-0.133988 0.0592,-0.133845 0.0539,-0.133845 0.0488,-0.133988 0.0438,-0.133845 0.0385,-0.133845 0.0335,-0.133845 0.0283,-0.133988 0.023,-0.133845 0.018,-0.133845 0.0129,-0.133845 0.008,-0.133988 0.003,-0.133845 -0.003,-0.133845 -0.008,-0.133988 -0.0129,-0.133845 -0.018,-0.133845 -0.023,-0.133845 -0.0283,-0.133988 -0.0335,-0.133845 -0.0385,-0.133845 -0.0438,-0.133845 -0.0488,-0.133988 -0.0539,-0.133845 -0.0592,-0.133845 -0.0642,-0.133988 -0.0693,-0.133845 -0.0745,-0.133845 -0.0797,-0.133845 v 0 l 6.13929,2.1421 z M 430.2952,45.60949 V 44.6005 l 0.026,7.15e-4 0.0256,0.0019 0.0252,0.0033 0.0249,0.0044 0.0245,0.0056 0.0239,0.0069 0.0235,0.0079 0.0229,0.009 0.0223,0.01015 0.0217,0.01115 0.0212,0.01215 0.0204,0.01316 0.0199,0.01401 0.019,0.01501 0.0183,0.01587 0.0176,0.01659 0.0166,0.01759 0.0159,0.0183 0.015,0.01902 0.014,0.01988 0.0132,0.02045 0.0122,0.02116 0.0111,0.02173 0.0102,0.02231 0.009,0.02288 0.008,0.02345 0.007,0.02388 0.006,0.02445 0.004,0.02488 0.003,0.02517 0.002,0.0256 7.1e-4,0.02603 -7.1e-4,0.02603 -0.002,0.0256 -0.003,0.02517 -0.004,0.02488 -0.006,0.02445 -0.007,0.02388 -0.008,0.02345 -0.009,0.02288 -0.0102,0.02231 -0.0111,0.02174 -0.0122,0.02116 -0.0132,0.02045 -0.014,0.01988 -0.015,0.01902 -0.0159,0.0183 -0.0166,0.01744 -0.0176,0.01673 -0.0183,0.01587 -0.019,0.01501 -0.0199,0.01401 -0.0204,0.01316 -0.0212,0.01215 -0.0217,0.01115 -0.0223,0.01015 -0.0229,0.009 -0.0235,0.0079 -0.0239,0.0069 -0.0245,0.0056 -0.0249,0.0044 -0.0252,0.0033 -0.0256,0.0019 -0.026,7.15e-4 z" class="fil1"/></g><g id="g22"><path style="fill:#1f1a17;fill-rule:nonzero" inkscape:connector-curvature="0" id="path20" d="m 528.584,44.6005 v 1.00899 l -0.026,-7.15e-4 -0.0256,-0.0019 -0.0252,-0.0033 -0.0249,-0.0044 -0.0245,-0.0056 -0.0239,-0.0069 -0.0235,-0.0079 -0.0229,-0.009 -0.0223,-0.01015 -0.0217,-0.01115 -0.0212,-0.01215 -0.0204,-0.01316 -0.0199,-0.01401 -0.019,-0.01501 -0.0183,-0.01587 -0.0174,-0.01673 -0.0167,-0.01745 -0.0159,-0.0183 -0.015,-0.01902 -0.014,-0.01988 -0.0132,-0.02045 -0.0122,-0.02116 -0.0111,-0.02173 -0.0102,-0.02231 -0.009,-0.02288 -0.008,-0.02345 -0.007,-0.02388 -0.006,-0.02445 -0.004,-0.02488 -0.003,-0.02517 -0.002,-0.0256 -7.1e-4,-0.02603 7.1e-4,-0.02602 0.002,-0.0256 0.003,-0.02517 0.004,-0.02488 0.006,-0.02445 0.007,-0.02388 0.008,-0.02345 0.009,-0.02288 0.0102,-0.02231 0.0111,-0.02174 0.0122,-0.02116 0.0132,-0.02045 0.014,-0.01988 0.015,-0.01902 0.0159,-0.0183 0.0167,-0.01759 0.0174,-0.01659 0.0183,-0.01587 0.019,-0.01501 0.0199,-0.01401 0.0204,-0.01316 0.0212,-0.01215 0.0217,-0.01115 0.0223,-0.01015 0.0229,-0.009 0.0235,-0.0079 0.0239,-0.0069 0.0245,-0.0056 0.0249,-0.0044 0.0252,-0.0033 0.0256,-0.0019 0.026,-7.15e-4 z m 15.9932,1.00899 H 528.584 V 44.6005 h 15.9932 z m 3.54962,-0.504493 -6.13929,2.1421 0.0797,-0.133845 0.0745,-0.133845 0.0694,-0.133845 0.0642,-0.133988 0.0592,-0.133845 0.0539,-0.133845 0.0488,-0.133988 0.0438,-0.133845 0.0385,-0.133845 0.0335,-0.133845 0.0283,-0.133988 0.023,-0.133845 0.018,-0.133845 0.0129,-0.133845 0.008,-0.133988 0.003,-0.133845 -0.003,-0.133845 -0.008,-0.133988 -0.0129,-0.133845 -0.018,-0.133845 -0.023,-0.133845 -0.0283,-0.133988 -0.0335,-0.133845 -0.0385,-0.133845 -0.0438,-0.133845 -0.0488,-0.133988 -0.0539,-0.133845 -0.0592,-0.133845 -0.0642,-0.133988 -0.0694,-0.133845 -0.0745,-0.133845 -0.0797,-0.133845 v 0 l 6.13929,2.1421 z M 544.5772,45.60949 V 44.6005 l 0.026,7.15e-4 0.0256,0.0019 0.0252,0.0033 0.0249,0.0044 0.0245,0.0056 0.0239,0.0069 0.0235,0.0079 0.0229,0.009 0.0223,0.01015 0.0217,0.01115 0.0212,0.01215 0.0204,0.01316 0.0199,0.01401 0.019,0.01501 0.0183,0.01587 0.0176,0.01659 0.0166,0.01759 0.0159,0.0183 0.015,0.01902 0.014,0.01988 0.0131,0.02045 0.0122,0.02116 0.0112,0.02173 0.0102,0.02231 0.009,0.02288 0.008,0.02345 0.007,0.02388 0.006,0.02445 0.004,0.02488 0.003,0.02517 0.002,0.0256 7.1e-4,0.02603 -7.1e-4,0.02603 -0.002,0.0256 -0.003,0.02517 -0.004,0.02488 -0.006,0.02445 -0.007,0.02388 -0.008,0.02345 -0.009,0.02288 -0.0102,0.02231 -0.0112,0.02174 -0.0122,0.02116 -0.0131,0.02045 -0.014,0.01988 -0.015,0.01902 -0.0159,0.0183 -0.0166,0.01744 -0.0176,0.01673 -0.0183,0.01587 -0.019,0.01501 -0.0199,0.01401 -0.0204,0.01316 -0.0212,0.01215 -0.0217,0.01115 -0.0223,0.01015 -0.0229,0.009 -0.0235,0.0079 -0.0239,0.0069 -0.0245,0.0056 -0.0249,0.0044 -0.0252,0.0033 -0.0256,0.0019 -0.026,7.15e-4 z" class="fil1"/></g><g id="g26"><path style="fill:#1f1a17;fill-rule:nonzero" inkscape:connector-curvature="0" id="path24" d="m 655.157,44.6006 v 1.00899 l -0.026,-7.15e-4 -0.0256,-0.0019 -0.0252,-0.0033 -0.0249,-0.0044 -0.0245,-0.0056 -0.0239,-0.0069 -0.0235,-0.0079 -0.0229,-0.009 -0.0223,-0.01015 -0.0217,-0.01115 -0.0212,-0.01215 -0.0204,-0.01316 -0.0199,-0.01401 -0.019,-0.01501 -0.0183,-0.01587 -0.0174,-0.01673 -0.0167,-0.01745 -0.0159,-0.0183 -0.015,-0.01902 -0.014,-0.01988 -0.0131,-0.02045 -0.0122,-0.02116 -0.0112,-0.02173 -0.0101,-0.02231 -0.009,-0.02288 -0.008,-0.02345 -0.007,-0.02388 -0.006,-0.02445 -0.004,-0.02488 -0.003,-0.02517 -0.002,-0.0256 -7.1e-4,-0.02603 7.1e-4,-0.02603 0.002,-0.0256 0.003,-0.02517 0.004,-0.02488 0.006,-0.02445 0.007,-0.02388 0.008,-0.02345 0.009,-0.02288 0.0101,-0.02231 0.0112,-0.02174 0.0122,-0.02116 0.0131,-0.02045 0.014,-0.01988 0.015,-0.01902 0.0159,-0.0183 0.0167,-0.01759 0.0174,-0.01659 0.0183,-0.01587 0.019,-0.01501 0.0199,-0.01401 0.0204,-0.01316 0.0212,-0.01215 0.0217,-0.01115 0.0223,-0.01015 0.0229,-0.009 0.0235,-0.0079 0.0239,-0.0069 0.0245,-0.0056 0.0249,-0.0044 0.0252,-0.0033 0.0256,-0.0019 0.026,-7.15e-4 z m 15.9932,1.00899 H 655.157 V 44.6006 h 15.9932 z m 3.54962,-0.504493 -6.13929,2.1421 0.0797,-0.133845 0.0745,-0.133845 0.0693,-0.133845 0.0642,-0.133988 0.0592,-0.133845 0.0539,-0.133845 0.0488,-0.133988 0.0438,-0.133845 0.0385,-0.133845 0.0335,-0.133845 0.0283,-0.133988 0.023,-0.133845 0.018,-0.133845 0.0129,-0.133845 0.008,-0.133988 0.003,-0.133845 -0.003,-0.133845 -0.008,-0.133988 -0.0129,-0.133845 -0.018,-0.133845 -0.023,-0.133845 -0.0283,-0.133988 -0.0335,-0.133845 -0.0385,-0.133845 -0.0438,-0.133845 -0.0488,-0.133988 -0.0539,-0.133845 -0.0592,-0.133845 -0.0642,-0.133988 -0.0693,-0.133845 -0.0745,-0.133845 -0.0797,-0.133845 v 0 l 6.13929,2.1421 z M 671.1502,45.60959 V 44.6006 l 0.026,7.15e-4 0.0256,0.0019 0.0252,0.0033 0.0249,0.0044 0.0245,0.0056 0.0239,0.0069 0.0235,0.0079 0.0229,0.009 0.0223,0.01015 0.0217,0.01115 0.0212,0.01215 0.0204,0.01316 0.0199,0.01401 0.019,0.01502 0.0183,0.01587 0.0176,0.01659 0.0166,0.01759 0.0159,0.0183 0.015,0.01902 0.014,0.01988 0.0131,0.02045 0.0122,0.02116 0.0111,0.02173 0.0102,0.02231 0.009,0.02288 0.008,0.02345 0.007,0.02388 0.006,0.02445 0.004,0.02488 0.003,0.02517 0.002,0.0256 7.1e-4,0.02603 -7.1e-4,0.02602 -0.002,0.0256 -0.003,0.02517 -0.004,0.02488 -0.006,0.02445 -0.007,0.02388 -0.008,0.02345 -0.009,0.02288 -0.0102,0.02231 -0.0111,0.02174 -0.0122,0.02116 -0.0131,0.02045 -0.014,0.01988 -0.015,0.01902 -0.0159,0.0183 -0.0166,0.01745 -0.0176,0.01673 -0.0183,0.01587 -0.019,0.01501 -0.0199,0.01401 -0.0204,0.01316 -0.0212,0.01215 -0.0217,0.01115 -0.0223,0.01015 -0.0229,0.009 -0.0235,0.0079 -0.0239,0.0069 -0.0245,0.0056 -0.0249,0.0044 -0.0252,0.0033 -0.0256,0.0019 -0.026,7.15e-4 z" class="fil1"/></g><rect style="fill:#cdc5dd" id="rect28" height="52.818298" width="94.739601" y="18.6959" x="433.845" class="fil2"/><rect style="fill:#cdc5dd" id="rect30" height="52.818298" width="122.655" y="18.6959" x="54.0023" class="fil2"/><text style="font-weight:normal;font-size:11.09809971px;font-family:'DejaVu Sans';fill:#1f1a17" id="text32" class="fil3 fnt0" y="42.783901" x="67.89">Model &amp; Camera</text>
<text style="font-weight:normal;font-size:11.09809971px;font-family:'DejaVu Sans';fill:#1f1a17" id="text34" class="fil3 fnt0" y="55.702099" x="73.966797">transformation</text>
<rect style="fill:#cdc5dd" id="rect36" height="52.818298" width="103.82" y="18.6959" class="fil2" x="196.2"/><text style="font-weight:normal;font-size:11.09809971px;font-family:'DejaVu Sans';fill:#1f1a17" id="text38" class="fil3 fnt0" y="49.242901" x="224.61">Lighting</text>
<rect style="fill:#cdc5dd" id="rect40" height="52.818298" width="94.739601" y="18.6959" x="319.56201" class="fil2"/><text style="font-weight:normal;font-size:11.09809971px;font-family:'DejaVu Sans';fill:#1f1a17" id="text42" class="fil3 fnt0" y="48.167099" x="339.80099">Projection</text>
<g id="g46"><path style="fill:#1f1a17;fill-rule:nonzero" inkscape:connector-curvature="0" id="path44" d="m 34.4594,44.6005 v 1.00899 l -0.02603,-7.15e-4 -0.0256,-0.0019 -0.02517,-0.0033 -0.02488,-0.0044 -0.02445,-0.0056 -0.02388,-0.0069 -0.02345,-0.0079 -0.02288,-0.009 -0.02231,-0.01015 -0.02173,-0.01115 -0.02116,-0.01215 -0.02045,-0.01316 -0.01988,-0.01401 -0.01902,-0.01501 -0.0183,-0.01587 -0.01759,-0.01673 -0.01659,-0.01745 -0.01587,-0.0183 -0.01502,-0.01902 -0.01401,-0.01988 -0.01316,-0.02045 -0.01215,-0.02116 -0.01115,-0.02173 -0.01015,-0.02231 -0.009,-0.02288 -0.0079,-0.02345 -0.0069,-0.02388 -0.0056,-0.02445 -0.0044,-0.02488 -0.0033,-0.02517 -0.0019,-0.0256 -7.15e-4,-0.02603 7.15e-4,-0.02602 0.0019,-0.0256 0.0033,-0.02517 0.0044,-0.02488 0.0056,-0.02445 0.0069,-0.02388 0.0079,-0.02345 0.009,-0.02288 0.01015,-0.02231 0.01115,-0.02174 0.01215,-0.02116 0.01316,-0.02045 0.01401,-0.01988 0.01502,-0.01902 0.01587,-0.0183 0.01659,-0.01759 0.01759,-0.01659 0.0183,-0.01587 0.01902,-0.01501 0.01988,-0.01401 0.02045,-0.01316 0.02116,-0.01215 0.02173,-0.01115 0.02231,-0.01015 0.02288,-0.009 0.02345,-0.0079 0.02388,-0.0069 0.02445,-0.0056 0.02488,-0.0044 0.02517,-0.0033 0.0256,-0.0019 0.02603,-7.15e-4 z m 15.9932,1.00899 H 34.4594 V 44.6005 h 15.9932 z m 3.54962,-0.504493 -6.13929,2.1421 0.07965,-0.133845 0.0745,-0.133845 0.06935,-0.133845 0.06421,-0.133988 0.0592,-0.133845 0.05391,-0.133845 0.04876,-0.133988 0.04376,-0.133845 0.03847,-0.133845 0.03346,-0.133845 0.02831,-0.133988 0.02302,-0.133845 0.01802,-0.133845 0.01287,-0.133845 0.0077,-0.133988 0.0026,-0.133845 -0.0026,-0.133845 -0.0077,-0.133988 -0.01287,-0.133845 -0.01802,-0.133845 -0.02302,-0.133845 -0.02831,-0.133988 -0.03346,-0.133845 -0.03847,-0.133845 -0.04376,-0.133845 -0.04876,-0.133988 -0.05391,-0.133845 -0.0592,-0.133845 -0.06421,-0.133988 -0.06935,-0.133845 -0.0745,-0.133845 -0.07965,-0.133845 v 0 l 6.13929,2.1421 z M 50.4526,45.60949 V 44.6005 l 0.02603,7.15e-4 0.0256,0.0019 0.02517,0.0033 0.02488,0.0044 0.02445,0.0056 0.02388,0.0069 0.02345,0.0079 0.02288,0.009 0.02231,0.01015 0.02173,0.01115 0.02116,0.01215 0.02045,0.01316 0.01988,0.01401 0.01902,0.01501 0.0183,0.01587 0.01745,0.01659 0.01673,0.01759 0.01587,0.0183 0.01501,0.01902 0.01401,0.01988 0.01316,0.02045 0.01215,0.02116 0.01115,0.02173 0.01015,0.02231 0.009,0.02288 0.0079,0.02345 0.0069,0.02388 0.0056,0.02445 0.0044,0.02488 0.0033,0.02517 0.0019,0.0256 7.15e-4,0.02603 -7.15e-4,0.02603 -0.0019,0.0256 -0.0033,0.02517 -0.0044,0.02488 -0.0056,0.02445 -0.0069,0.02388 -0.0079,0.02345 -0.009,0.02288 -0.01015,0.02231 -0.01115,0.02174 -0.01215,0.02116 -0.01316,0.02045 -0.01401,0.01988 -0.01501,0.01902 -0.01587,0.0183 -0.01673,0.01744 -0.01745,0.01673 -0.0183,0.01587 -0.01902,0.01501 -0.01988,0.01401 -0.02045,0.01316 -0.02116,0.01215 -0.02173,0.01115 -0.02231,0.01015 -0.02288,0.009 -0.02345,0.0079 -0.02388,0.0069 -0.02445,0.0056 -0.02488,0.0044 -0.02517,0.0033 -0.0256,0.0019 -0.02603,7.15e-4 z" class="fil1"/></g><text style="font-weight:normal;font-size:11.09809971px;font-family:'DejaVu Sans';fill:#1f1a17" id="text48" class="fil3 fnt0" y="48.167099" x="459.134">Clipping</text>
<rect style="fill:#cdc5dd" id="rect50" height="52.8186" width="107.03" y="18.6957" x="548.12701" class="fil2"/><text style="font-weight:normal;font-size:11.09809971px;font-family:'DejaVu Sans';fill:#1f1a17" id="text52" class="fil3 fnt0" y="36.324699" x="578.24799">Window-</text>
<text style="font-weight:normal;font-size:11.09809971px;font-family:'DejaVu Sans';fill:#1f1a17" id="text54" class="fil3 fnt0" y="49.242901" x="577.584">Viewport</text>
<text style="font-weight:normal;font-size:11.09809971px;font-family:'DejaVu Sans';fill:#1f1a17" id="text56" class="fil3 fnt0" y="62.161098" x="561.497">transformation</text>
<g id="g60"><path style="fill:#1f1a17;fill-rule:nonzero" inkscape:connector-curvature="0" id="path58" d="m 188.446,45.105 -0.003,0.103387 -0.008,0.102243 -0.0129,0.10067 -0.0177,0.0991 -0.0226,0.09738 -0.0273,0.09552 -0.0317,0.09366 -0.0363,0.09152 -0.0405,0.08937 -0.0446,0.08694 -0.0486,0.08451 -0.0526,0.08194 -0.0563,0.07922 -0.0599,0.07622 -0.0635,0.07336 -0.0669,0.07021 -0.0702,0.06692 -0.0732,0.06349 -0.0762,0.06006 -0.0792,0.05634 -0.0818,0.05262 -0.0845,0.04876 -0.0871,0.04476 -0.0894,0.04047 -0.0915,0.03632 -0.0937,0.03189 -0.0957,0.02731 -0.0975,0.02259 -0.0992,0.01787 -0.10081,0.01287 -0.10224,0.0079 -0.10367,0.0026 v 0 l -0.10368,-0.0026 -0.10224,-0.0079 -0.10081,-0.01287 -0.0992,-0.01787 -0.0975,-0.02259 -0.0957,-0.02731 -0.0937,-0.03189 -0.0915,-0.03632 -0.0894,-0.04047 -0.0871,-0.04476 -0.0845,-0.04876 -0.0818,-0.05262 -0.0792,-0.05634 -0.0762,-0.06006 -0.0732,-0.06349 -0.0702,-0.06692 -0.0669,-0.07021 -0.0635,-0.07336 -0.0599,-0.07622 -0.0563,-0.07922 -0.0526,-0.08194 -0.0486,-0.08451 -0.0446,-0.08694 -0.0405,-0.08937 -0.0363,-0.09152 -0.0317,-0.09366 -0.0273,-0.09552 -0.0226,-0.09738 -0.0177,-0.0991 -0.0129,-0.10067 -0.008,-0.102243 -0.003,-0.103387 v 0 l 0.003,-0.103387 0.008,-0.102243 0.0129,-0.10067 0.0177,-0.0991 0.0226,-0.09738 0.0273,-0.09552 0.0317,-0.09366 0.0363,-0.09152 0.0405,-0.08937 0.0446,-0.08694 0.0486,-0.08451 0.0526,-0.08194 0.0563,-0.07922 0.0599,-0.07622 0.0635,-0.07336 0.0669,-0.07021 0.0702,-0.06692 0.0732,-0.06349 0.0762,-0.06006 0.0792,-0.05634 0.0818,-0.05262 0.0845,-0.04876 0.0871,-0.04476 0.0894,-0.04047 0.0915,-0.03632 0.0937,-0.03189 0.0957,-0.02731 0.0975,-0.02259 0.0992,-0.01787 0.10081,-0.01287 0.10224,-0.0079 0.10368,-0.0026 v 0 l 0.10367,0.0026 0.10224,0.0079 0.10081,0.01287 0.0992,0.01787 0.0975,0.02259 0.0957,0.02731 0.0937,0.03189 0.0915,0.03632 0.0894,0.04047 0.0871,0.04476 0.0845,0.04876 0.0818,0.05262 0.0792,0.05634 0.0762,0.06006 0.0732,0.06349 0.0702,0.06692 0.0669,0.07021 0.0635,0.07336 0.0599,0.07622 0.0563,0.07922 0.0526,0.08194 0.0486,0.08451 0.0446,0.08694 0.0405,0.08937 0.0363,0.09152 0.0317,0.09366 0.0273,0.09552 0.0226,0.09738 0.0177,0.0991 0.0129,0.10067 0.008,0.102243 z m -1.51348,0 h -1.00899 l 7.1e-4,-0.02603 0.002,-0.0256 0.003,-0.02517 0.004,-0.02488 0.006,-0.02445 0.007,-0.02388 0.008,-0.02345 0.009,-0.02288 0.0101,-0.02231 0.0112,-0.02173 0.0121,-0.02116 0.0132,-0.02045 0.014,-0.01988 0.015,-0.01902 0.0159,-0.0183 0.0166,-0.01759 0.0176,-0.01659 0.0183,-0.01587 0.019,-0.01501 0.0199,-0.01401 0.0205,-0.01316 0.0212,-0.01215 0.0217,-0.01115 0.0223,-0.01015 0.0229,-0.009 0.0234,-0.0079 0.0239,-0.0069 0.0245,-0.0056 0.0249,-0.0044 0.0252,-0.0033 0.0256,-0.0019 0.026,-7.15e-4 0.026,7.15e-4 0.0256,0.0019 0.0252,0.0033 0.0249,0.0044 0.0245,0.0056 0.0239,0.0069 0.0234,0.0079 0.0229,0.009 0.0223,0.01015 0.0217,0.01115 0.0212,0.01215 0.0204,0.01316 0.0199,0.01401 0.019,0.01501 0.0183,0.01587 0.0174,0.01659 0.0167,0.01759 0.0159,0.0183 0.015,0.01902 0.014,0.01988 0.0132,0.02045 0.0121,0.02116 0.0111,0.02173 0.0102,0.02231 0.009,0.02288 0.008,0.02345 0.007,0.02388 0.006,0.02445 0.004,0.02488 0.003,0.02517 0.002,0.0256 7.2e-4,0.02603 z m -1.00899,38.7585 V 45.105 h 1.00899 v 38.7585 z m 0,0 h 1.00899 l -7.1e-4,0.02603 -0.002,0.0256 -0.003,0.02517 -0.004,0.02488 -0.006,0.02445 -0.007,0.02388 -0.008,0.02345 -0.009,0.02288 -0.0102,0.02231 -0.0112,0.02174 -0.0121,0.02116 -0.0132,0.02045 -0.014,0.01988 -0.015,0.01902 -0.0159,0.0183 -0.0167,0.01759 -0.0174,0.01659 -0.0183,0.01587 -0.019,0.01502 -0.0199,0.01401 -0.0204,0.01316 -0.0212,0.01216 -0.0217,0.01115 -0.0223,0.01015 -0.0229,0.009 -0.0234,0.0079 -0.0239,0.0069 -0.0245,0.0056 -0.0249,0.0044 -0.0252,0.0033 -0.0256,0.0019 -0.026,7.15e-4 -0.026,-7.15e-4 -0.0256,-0.0019 -0.0252,-0.0033 -0.0249,-0.0044 -0.0245,-0.0056 -0.0239,-0.0069 -0.0234,-0.0079 -0.0229,-0.009 -0.0223,-0.01015 -0.0217,-0.01115 -0.0212,-0.01216 -0.0204,-0.01316 -0.0199,-0.01401 -0.019,-0.01502 -0.0183,-0.01587 -0.0176,-0.01659 -0.0166,-0.01759 -0.0159,-0.0183 -0.015,-0.01902 -0.014,-0.01988 -0.0132,-0.02045 -0.0121,-0.02116 -0.0112,-0.02174 -0.0102,-0.02231 -0.009,-0.02288 -0.008,-0.02345 -0.007,-0.02388 -0.006,-0.02445 -0.004,-0.02488 -0.003,-0.02517 -0.002,-0.0256 -7.2e-4,-0.02603 z" class="fil1"/></g><text style="font-weight:normal;font-size:11.09809971px;font-family:'DejaVu Sans';fill:#1f1a17" id="text62" class="fil3 fnt0" y="97.388298" x="132.375">Camera coordinates</text>
<g id="g66"><path style="fill:#1f1a17;fill-rule:nonzero" inkscape:connector-curvature="0" id="path64" d="m 46.2488,45.105 -0.0026,0.103387 -0.0079,0.102243 -0.01287,0.10067 -0.01773,0.0991 -0.02259,0.09738 -0.02731,0.09552 -0.03175,0.09366 -0.03632,0.09152 -0.04047,0.08937 -0.04462,0.08694 -0.04862,0.08451 -0.05262,0.08194 -0.05634,0.07922 -0.05992,0.07622 -0.06349,0.07336 -0.06692,0.07021 -0.07021,0.06692 -0.07322,0.06349 -0.07622,0.06006 -0.07922,0.05634 -0.08179,0.05262 -0.08451,0.04876 -0.08709,0.04476 -0.08937,0.04047 -0.09152,0.03632 -0.09366,0.03189 -0.09567,0.02731 -0.09752,0.02259 -0.09924,0.01787 -0.100813,0.01287 -0.102243,0.0079 -0.103673,0.0026 v 0 l -0.103673,-0.0026 -0.102243,-0.0079 -0.100813,-0.01287 -0.09924,-0.01787 -0.09752,-0.02259 -0.09567,-0.02731 -0.09366,-0.03189 -0.09152,-0.03632 -0.08937,-0.04047 -0.08709,-0.04476 -0.08451,-0.04876 -0.08179,-0.05262 -0.07922,-0.05634 -0.07622,-0.06006 -0.07321,-0.06349 -0.07021,-0.06692 -0.06692,-0.07021 -0.06349,-0.07336 -0.05992,-0.07622 -0.05634,-0.07922 -0.05262,-0.08194 -0.04862,-0.08451 -0.04462,-0.08694 -0.04047,-0.08937 -0.03632,-0.09152 -0.03175,-0.09366 -0.02731,-0.09552 -0.02259,-0.09738 -0.01773,-0.0991 -0.01287,-0.10067 -0.0079,-0.102243 -0.0026,-0.103387 v 0 l 0.0026,-0.103387 0.0079,-0.102243 0.01287,-0.10067 0.01773,-0.0991 0.02259,-0.09738 0.02731,-0.09552 0.03175,-0.09366 0.03632,-0.09152 0.04047,-0.08937 0.04462,-0.08694 0.04862,-0.08451 0.05262,-0.08194 0.05634,-0.07922 0.05992,-0.07622 0.06349,-0.07336 0.06692,-0.07021 0.07021,-0.06692 0.07321,-0.06349 0.07622,-0.06006 0.07922,-0.05634 0.08179,-0.05262 0.08451,-0.04876 0.08709,-0.04476 0.08937,-0.04047 0.09152,-0.03632 0.09366,-0.03189 0.09567,-0.02731 0.09752,-0.02259 0.09924,-0.01787 0.100813,-0.01287 0.102243,-0.0079 0.103673,-0.0026 v 0 l 0.103673,0.0026 0.102243,0.0079 0.100813,0.01287 0.09924,0.01787 0.09752,0.02259 0.09567,0.02731 0.09366,0.03189 0.09152,0.03632 0.08937,0.04047 0.08709,0.04476 0.08451,0.04876 0.08179,0.05262 0.07922,0.05634 0.07622,0.06006 0.07322,0.06349 0.07021,0.06692 0.06692,0.07021 0.06349,0.07336 0.05992,0.07622 0.05634,0.07922 0.05262,0.08194 0.04862,0.08451 0.04462,0.08694 0.04047,0.08937 0.03632,0.09152 0.03175,0.09366 0.02731,0.09552 0.02259,0.09738 0.01773,0.0991 0.01287,0.10067 0.0079,0.102243 z m -1.51348,0 h -1.00899 l 7.15e-4,-0.02603 0.0019,-0.0256 0.0033,-0.02517 0.0044,-0.02488 0.0056,-0.02445 0.0069,-0.02388 0.0079,-0.02345 0.009,-0.02288 0.01015,-0.02231 0.01115,-0.02173 0.01215,-0.02116 0.01316,-0.02045 0.01401,-0.01988 0.01501,-0.01902 0.01587,-0.0183 0.01659,-0.01759 0.01759,-0.01659 0.0183,-0.01587 0.01902,-0.01501 0.01988,-0.01401 0.02045,-0.01316 0.02116,-0.01215 0.02173,-0.01115 0.02231,-0.01015 0.02288,-0.009 0.02345,-0.0079 0.02388,-0.0069 0.02445,-0.0056 0.02488,-0.0044 0.02517,-0.0033 0.0256,-0.0019 0.02603,-7.15e-4 0.02603,7.15e-4 0.0256,0.0019 0.02517,0.0033 0.02488,0.0044 0.02445,0.0056 0.02388,0.0069 0.02345,0.0079 0.02288,0.009 0.02231,0.01015 0.02174,0.01115 0.02116,0.01215 0.02045,0.01316 0.01988,0.01401 0.01902,0.01501 0.0183,0.01587 0.01744,0.01659 0.01673,0.01759 0.01587,0.0183 0.01501,0.01902 0.01401,0.01988 0.01316,0.02045 0.01215,0.02116 0.01115,0.02173 0.01015,0.02231 0.009,0.02288 0.0079,0.02345 0.0069,0.02388 0.0056,0.02445 0.0044,0.02488 0.0033,0.02517 0.0019,0.0256 7.15e-4,0.02603 z M 43.72633,83.8635 V 45.105 h 1.00899 v 38.7585 z m 0,0 h 1.00899 l -7.15e-4,0.02603 -0.0019,0.0256 -0.0033,0.02517 -0.0044,0.02488 -0.0056,0.02445 -0.0069,0.02388 -0.0079,0.02345 -0.009,0.02288 -0.01015,0.02231 -0.01115,0.02174 -0.01215,0.02116 -0.01316,0.02045 -0.01401,0.01988 -0.01501,0.01902 -0.01587,0.0183 -0.01673,0.01759 -0.01745,0.01659 -0.0183,0.01587 -0.01902,0.01502 -0.01988,0.01401 -0.02045,0.01316 -0.02116,0.01216 -0.02173,0.01115 -0.02231,0.01015 -0.02288,0.009 -0.02345,0.0079 -0.02388,0.0069 -0.02445,0.0056 -0.02488,0.0044 -0.02517,0.0033 -0.0256,0.0019 -0.02603,7.15e-4 -0.02602,-7.15e-4 -0.0256,-0.0019 -0.02517,-0.0033 -0.02488,-0.0044 -0.02445,-0.0056 -0.02388,-0.0069 -0.02345,-0.0079 -0.02288,-0.009 -0.02231,-0.01015 -0.02174,-0.01115 -0.02116,-0.01216 -0.02045,-0.01316 -0.01988,-0.01401 -0.01902,-0.01502 -0.0183,-0.01587 -0.01759,-0.01659 -0.01659,-0.01759 -0.01587,-0.0183 -0.01501,-0.01902 -0.01401,-0.01988 -0.01316,-0.02045 -0.01215,-0.02116 -0.01115,-0.02174 -0.01015,-0.02231 -0.009,-0.02288 -0.0079,-0.02345 -0.0069,-0.02388 -0.0056,-0.02445 -0.0044,-0.02488 -0.0033,-0.02517 -0.0019,-0.0256 -7.15e-4,-0.02603 z" class="fil1"/></g><text style="font-weight:normal;font-size:11.09809971px;font-family:'DejaVu Sans';fill:#1f1a17" id="text68" class="fil3 fnt0" y="97.388298" x="11.547">Object coordinates</text>
<g id="g72"><path style="fill:#1f1a17;fill-rule:nonzero" inkscape:connector-curvature="0" id="path70" d="m 426.091,45.105 -0.003,0.103387 -0.008,0.102243 -0.0129,0.10067 -0.0177,0.0991 -0.0226,0.09738 -0.0273,0.09552 -0.0317,0.09366 -0.0363,0.09152 -0.0405,0.08937 -0.0446,0.08694 -0.0486,0.08451 -0.0526,0.08194 -0.0563,0.07922 -0.0599,0.07622 -0.0635,0.07336 -0.0669,0.07021 -0.0702,0.06692 -0.0732,0.06349 -0.0762,0.06006 -0.0792,0.05634 -0.0818,0.05262 -0.0845,0.04876 -0.0871,0.04476 -0.0894,0.04047 -0.0915,0.03632 -0.0937,0.03189 -0.0957,0.02731 -0.0975,0.02259 -0.0992,0.01787 -0.10081,0.01287 -0.10224,0.0079 -0.10367,0.0026 v 0 l -0.10368,-0.0026 -0.10224,-0.0079 -0.10081,-0.01287 -0.0992,-0.01787 -0.0975,-0.02259 -0.0957,-0.02731 -0.0937,-0.03189 -0.0915,-0.03632 -0.0894,-0.04047 -0.0871,-0.04476 -0.0845,-0.04876 -0.0818,-0.05262 -0.0792,-0.05634 -0.0762,-0.06006 -0.0732,-0.06349 -0.0702,-0.06692 -0.0669,-0.07021 -0.0635,-0.07336 -0.0599,-0.07622 -0.0563,-0.07922 -0.0526,-0.08194 -0.0486,-0.08451 -0.0446,-0.08694 -0.0405,-0.08937 -0.0363,-0.09152 -0.0317,-0.09366 -0.0273,-0.09552 -0.0226,-0.09738 -0.0177,-0.0991 -0.0129,-0.10067 -0.008,-0.102243 -0.003,-0.103387 v 0 l 0.003,-0.103387 0.008,-0.102243 0.0129,-0.10067 0.0177,-0.0991 0.0226,-0.09738 0.0273,-0.09552 0.0317,-0.09366 0.0363,-0.09152 0.0405,-0.08937 0.0446,-0.08694 0.0486,-0.08451 0.0526,-0.08194 0.0563,-0.07922 0.0599,-0.07622 0.0635,-0.07336 0.0669,-0.07021 0.0702,-0.06692 0.0732,-0.06349 0.0762,-0.06006 0.0792,-0.05634 0.0818,-0.05262 0.0845,-0.04876 0.0871,-0.04476 0.0894,-0.04047 0.0915,-0.03632 0.0937,-0.03189 0.0957,-0.02731 0.0975,-0.02259 0.0992,-0.01787 0.10081,-0.01287 0.10224,-0.0079 0.10368,-0.0026 v 0 l 0.10367,0.0026 0.10224,0.0079 0.10081,0.01287 0.0992,0.01787 0.0975,0.02259 0.0957,0.02731 0.0937,0.03189 0.0915,0.03632 0.0894,0.04047 0.0871,0.04476 0.0845,0.04876 0.0818,0.05262 0.0792,0.05634 0.0762,0.06006 0.0732,0.06349 0.0702,0.06692 0.0669,0.07021 0.0635,0.07336 0.0599,0.07622 0.0563,0.07922 0.0526,0.08194 0.0486,0.08451 0.0446,0.08694 0.0405,0.08937 0.0363,0.09152 0.0317,0.09366 0.0273,0.09552 0.0226,0.09738 0.0177,0.0991 0.0129,0.10067 0.008,0.102243 z m -1.51348,0 h -1.00899 l 7.1e-4,-0.02603 0.002,-0.0256 0.003,-0.02517 0.004,-0.02488 0.006,-0.02445 0.007,-0.02388 0.008,-0.02345 0.009,-0.02288 0.0102,-0.02231 0.0112,-0.02173 0.0121,-0.02116 0.0132,-0.02045 0.014,-0.01988 0.015,-0.01902 0.0159,-0.0183 0.0167,-0.01759 0.0174,-0.01659 0.0183,-0.01587 0.019,-0.01501 0.0199,-0.01401 0.0205,-0.01316 0.0212,-0.01215 0.0217,-0.01115 0.0223,-0.01015 0.0229,-0.009 0.0235,-0.0079 0.0239,-0.0069 0.0244,-0.0056 0.0249,-0.0044 0.0252,-0.0033 0.0256,-0.0019 0.026,-7.15e-4 0.026,7.15e-4 0.0256,0.0019 0.0252,0.0033 0.0249,0.0044 0.0245,0.0056 0.0239,0.0069 0.0235,0.0079 0.0229,0.009 0.0223,0.01015 0.0217,0.01115 0.0212,0.01215 0.0204,0.01316 0.0199,0.01401 0.019,0.01501 0.0183,0.01587 0.0176,0.01659 0.0166,0.01759 0.0159,0.0183 0.015,0.01902 0.014,0.01988 0.0132,0.02045 0.0121,0.02116 0.0112,0.02173 0.0102,0.02231 0.009,0.02288 0.008,0.02345 0.007,0.02388 0.006,0.02445 0.004,0.02488 0.003,0.02517 0.002,0.0256 7.2e-4,0.02603 z m -1.00899,38.7585 V 45.105 h 1.00899 v 38.7585 z m 0,0 h 1.00899 l -7.1e-4,0.02603 -0.002,0.0256 -0.003,0.02517 -0.004,0.02488 -0.006,0.02445 -0.007,0.02388 -0.008,0.02345 -0.009,0.02288 -0.0102,0.02231 -0.0112,0.02174 -0.0121,0.02116 -0.0132,0.02045 -0.014,0.01988 -0.015,0.01902 -0.0159,0.0183 -0.0166,0.01759 -0.0176,0.01659 -0.0183,0.01587 -0.019,0.01502 -0.0199,0.01401 -0.0205,0.01316 -0.0212,0.01216 -0.0217,0.01115 -0.0223,0.01015 -0.0229,0.009 -0.0235,0.0079 -0.0239,0.0069 -0.0245,0.0056 -0.0249,0.0044 -0.0252,0.0033 -0.0256,0.0019 -0.026,7.15e-4 -0.026,-7.15e-4 -0.0256,-0.0019 -0.0252,-0.0033 -0.0249,-0.0044 -0.0245,-0.0056 -0.0239,-0.0069 -0.0235,-0.0079 -0.0229,-0.009 -0.0223,-0.01015 -0.0217,-0.01115 -0.0212,-0.01216 -0.0204,-0.01316 -0.0199,-0.01401 -0.019,-0.01502 -0.0183,-0.01587 -0.0174,-0.01659 -0.0167,-0.01759 -0.0159,-0.0183 -0.015,-0.01902 -0.014,-0.01988 -0.0132,-0.02045 -0.0121,-0.02116 -0.0112,-0.02174 -0.0102,-0.02231 -0.009,-0.02288 -0.008,-0.02345 -0.007,-0.02388 -0.006,-0.02445 -0.004,-0.02488 -0.003,-0.02517 -0.002,-0.0256 -7.2e-4,-0.02603 z" class="fil1"/></g><text style="font-weight:normal;font-size:11.09809971px;font-family:'DejaVu Sans';fill:#1f1a17" id="text74" class="fil3 fnt0" y="97.388298" x="366.53101">Clipping coordinates</text>
<g id="g78"><path style="fill:#1f1a17;fill-rule:nonzero" inkscape:connector-curvature="0" id="path76" d="m 666.947,45.1051 -0.003,0.103387 -0.008,0.102243 -0.0129,0.10067 -0.0177,0.0991 -0.0226,0.09738 -0.0273,0.09552 -0.0317,0.09366 -0.0363,0.09152 -0.0405,0.08937 -0.0446,0.08694 -0.0486,0.08451 -0.0526,0.08194 -0.0563,0.07922 -0.0599,0.07622 -0.0635,0.07336 -0.0669,0.07021 -0.0702,0.06692 -0.0732,0.06349 -0.0762,0.06006 -0.0792,0.05634 -0.0818,0.05262 -0.0845,0.04876 -0.0871,0.04476 -0.0894,0.04047 -0.0915,0.03632 -0.0937,0.03189 -0.0957,0.02731 -0.0975,0.02259 -0.0992,0.01788 -0.10081,0.01287 -0.10224,0.0079 -0.10367,0.0026 v 0 l -0.10368,-0.0026 -0.10224,-0.0079 -0.10081,-0.01287 -0.0992,-0.01788 -0.0975,-0.02259 -0.0957,-0.02731 -0.0937,-0.03189 -0.0915,-0.03632 -0.0894,-0.04047 -0.0871,-0.04476 -0.0845,-0.04876 -0.0818,-0.05262 -0.0792,-0.05634 -0.0762,-0.06006 -0.0732,-0.06349 -0.0702,-0.06692 -0.0669,-0.07021 -0.0635,-0.07336 -0.0599,-0.07622 -0.0563,-0.07922 -0.0526,-0.08194 -0.0486,-0.08451 -0.0446,-0.08694 -0.0405,-0.08937 -0.0363,-0.09152 -0.0317,-0.09366 -0.0273,-0.09552 -0.0226,-0.09738 -0.0177,-0.0991 -0.0129,-0.10067 -0.008,-0.102243 -0.003,-0.103387 v 0 l 0.003,-0.103387 0.008,-0.102243 0.0129,-0.10067 0.0177,-0.0991 0.0226,-0.09738 0.0273,-0.09552 0.0317,-0.09366 0.0363,-0.09152 0.0405,-0.08937 0.0446,-0.08694 0.0486,-0.08451 0.0526,-0.08194 0.0563,-0.07922 0.0599,-0.07622 0.0635,-0.07336 0.0669,-0.07021 0.0702,-0.06692 0.0732,-0.06349 0.0762,-0.06006 0.0792,-0.05634 0.0818,-0.05262 0.0845,-0.04876 0.0871,-0.04476 0.0894,-0.04047 0.0915,-0.03632 0.0937,-0.03189 0.0957,-0.02731 0.0975,-0.02259 0.0992,-0.01788 0.10081,-0.01287 0.10224,-0.0079 0.10368,-0.0026 v 0 l 0.10367,0.0026 0.10224,0.0079 0.10081,0.01287 0.0992,0.01788 0.0975,0.02259 0.0957,0.02731 0.0937,0.03189 0.0915,0.03632 0.0894,0.04047 0.0871,0.04476 0.0845,0.04876 0.0818,0.05262 0.0792,0.05634 0.0762,0.06006 0.0732,0.06349 0.0702,0.06692 0.0669,0.07021 0.0635,0.07336 0.0599,0.07622 0.0563,0.07922 0.0526,0.08194 0.0486,0.08451 0.0446,0.08694 0.0405,0.08937 0.0363,0.09152 0.0317,0.09366 0.0273,0.09552 0.0226,0.09738 0.0177,0.0991 0.0129,0.10067 0.008,0.102243 z m -1.51348,0 h -1.00899 l 7.1e-4,-0.02603 0.002,-0.0256 0.003,-0.02517 0.004,-0.02488 0.006,-0.02445 0.007,-0.02388 0.008,-0.02345 0.009,-0.02288 0.0101,-0.02231 0.0112,-0.02173 0.0122,-0.02116 0.0132,-0.02045 0.014,-0.01988 0.015,-0.01902 0.0159,-0.0183 0.0167,-0.01759 0.0174,-0.01659 0.0183,-0.01587 0.019,-0.01501 0.0199,-0.01401 0.0204,-0.01316 0.0212,-0.01215 0.0217,-0.01115 0.0223,-0.01015 0.0229,-0.009 0.0234,-0.0079 0.0239,-0.0069 0.0245,-0.0056 0.0249,-0.0044 0.0252,-0.0033 0.0256,-0.0019 0.026,-7.15e-4 0.026,7.15e-4 0.0256,0.0019 0.0252,0.0033 0.0249,0.0044 0.0245,0.0056 0.0239,0.0069 0.0235,0.0079 0.0229,0.009 0.0223,0.01015 0.0217,0.01115 0.0212,0.01215 0.0204,0.01316 0.0199,0.01401 0.019,0.01501 0.0183,0.01587 0.0176,0.01659 0.0166,0.01759 0.0159,0.0183 0.015,0.01902 0.014,0.01988 0.0132,0.02045 0.0122,0.02116 0.0111,0.02173 0.0102,0.02231 0.009,0.02288 0.008,0.02345 0.007,0.02388 0.006,0.02445 0.004,0.02488 0.003,0.02517 0.002,0.0256 7.2e-4,0.02603 z m -1.00899,38.7585 V 45.1051 h 1.00899 v 38.7585 z m 0,0 h 1.00899 l -7.1e-4,0.02602 -0.002,0.0256 -0.003,0.02517 -0.004,0.02488 -0.006,0.02445 -0.007,0.02388 -0.008,0.02345 -0.009,0.02288 -0.0101,0.02231 -0.0112,0.02174 -0.0122,0.02116 -0.0132,0.02045 -0.014,0.01988 -0.015,0.01902 -0.0159,0.0183 -0.0166,0.01759 -0.0176,0.01659 -0.0183,0.01587 -0.019,0.01502 -0.0199,0.01401 -0.0204,0.01316 -0.0212,0.01215 -0.0217,0.01115 -0.0223,0.01015 -0.0229,0.009 -0.0235,0.0079 -0.0239,0.0069 -0.0245,0.0056 -0.0249,0.0044 -0.0252,0.0033 -0.0256,0.0019 -0.026,7.15e-4 -0.026,-7.15e-4 -0.0256,-0.0019 -0.0252,-0.0033 -0.0249,-0.0044 -0.0245,-0.0056 -0.0239,-0.0069 -0.0234,-0.0079 -0.0229,-0.009 -0.0223,-0.01015 -0.0217,-0.01115 -0.0212,-0.01215 -0.0204,-0.01316 -0.0199,-0.01401 -0.019,-0.01502 -0.0183,-0.01587 -0.0174,-0.01659 -0.0167,-0.01759 -0.0159,-0.0183 -0.015,-0.01902 -0.014,-0.01988 -0.0132,-0.02045 -0.0122,-0.02116 -0.0112,-0.02174 -0.0102,-0.02231 -0.009,-0.02288 -0.008,-0.02345 -0.007,-0.02388 -0.006,-0.02445 -0.004,-0.02488 -0.003,-0.02517 -0.002,-0.0256 -7.2e-4,-0.02602 z" class="fil1"/></g><text style="font-weight:normal;font-size:11.09809971px;font-family:'DejaVu Sans';fill:#1f1a17" id="text80" class="fil3 fnt0" y="97.388397" x="609.91">Device coordinates</text>
</g></svg>