<?xml version="1.0" encoding="utf-8"?>
<!-- Generator: Adobe Adobe Illustrator 24.2.0, SVG Export Plug-In . SVG Version: 6.00 Build 0)  -->
<svg version="1.1" id="Layer_1" xmlns="http://www.w3.org/2000/svg" xmlns:xlink="http://www.w3.org/1999/xlink" x="0px" y="0px"
	 width="32px" height="32px" viewBox="0 0 32 32" style="enable-background:new 0 0 32 32;" xml:space="preserve">
<style type="text/css">
	.st0{fill:#257179;}
</style>
<g>
	<path class="st0" d="M27.15,21.59c-0.61-3-2.04-5.1-3.78-6.51c0.41-2.06,0.75-4.14,0.85-6.28c0.08-1.73-0.04-3.66-0.88-4.87
		c-0.86-1.26-2.4-1.3-3.26-0.03c-0.4,0.6-0.63,1.4-0.84,2.18c-0.57,2.15-1.04,4.36-1.42,6.61c-0.63-0.1-1.23-0.15-1.8-0.15
		c-0.53,0-1.08,0.02-1.65,0.07c-0.4-2.22-0.9-4.4-1.51-6.53c-0.23-0.79-0.47-1.59-0.9-2.18c-0.91-1.27-2.57-1.23-3.49,0.03
		C7.57,5.14,7.44,7.07,7.52,8.8c0.1,2.09,0.46,4.12,0.88,6.14c-1.52,1.35-2.8,3.42-3.52,6.65c-1.1,4.89,4.64,7.45,10.79,7.45
		S28.14,26.5,27.15,21.59z"/>
</g>
</svg>
